<?xml version="1.0" standalone="no"?>
<!DOCTYPE svg PUBLIC "-//W3C//DTD SVG 20010904//EN"
 "http://www.w3.org/TR/2001/REC-SVG-20010904/DTD/svg10.dtd">
<svg version="1.0" xmlns="http://www.w3.org/2000/svg"
 width="48.000000pt" height="48.000000pt" viewBox="0 0 48.000000 48.000000"
 preserveAspectRatio="xMidYMid meet">

<g transform="translate(0.000000,48.000000) scale(0.100000,-0.100000)"
fill="#000000" stroke="none">
<path d="M188 466 c-91 -24 -150 -84 -174 -178 -32 -122 48 -242 184 -278 52
-13 125 4 184 44 48 34 92 122 91 186 -2 148 -146 262 -285 226z m135 -40 c39
-17 92 -71 106 -109 6 -16 11 -50 11 -77 0 -27 -5 -61 -11 -77 -14 -38 -67
-92 -106 -109 -38 -17 -120 -18 -160 -3 -38 14 -92 67 -109 106 -17 38 -18
120 -3 160 14 37 66 92 104 109 39 17 127 18 168 0z"/>
<path d="M178 409 c-26 -15 -24 -69 2 -69 10 0 24 9 30 21 6 11 26 29 43 39
l32 20 -45 0 c-25 0 -53 -5 -62 -11z"/>
<path d="M110 365 l-23 -25 26 0 c22 0 27 5 27 25 0 14 -1 25 -3 25 -2 0 -14
-11 -27 -25z"/>
<path d="M249 371 c-30 -24 -19 -39 13 -17 49 34 108 8 108 -49 0 -26 -6 -39
-25 -51 -25 -16 -33 -34 -16 -34 6 0 22 10 36 23 38 32 38 92 0 124 -32 28
-84 30 -116 4z"/>
<path d="M276 334 c-9 -8 -16 -22 -16 -29 0 -7 7 -21 16 -29 30 -30 74 -13 74
29 0 42 -44 59 -74 29z"/>
<path d="M70 301 c-26 -50 -4 -146 44 -190 l26 -24 0 116 0 117 -30 0 c-19 0
-33 -7 -40 -19z"/>
<path d="M165 309 c-11 -17 0 -20 21 -4 17 13 17 14 2 15 -9 0 -20 -5 -23 -11z"/>
<path d="M220 295 c0 -14 6 -25 14 -25 9 0 12 8 8 25 -2 14 -8 25 -13 25 -5 0
-9 -11 -9 -25z"/>
<path d="M172 252 c-23 -68 56 -124 103 -72 20 22 6 27 -25 8 -33 -21 -55 1
-53 51 2 47 -11 54 -25 13z"/>
<path d="M412 268 c-2 -18 -57 -68 -75 -68 -7 0 -25 -14 -41 -31 -27 -28 -34
-31 -73 -26 -37 4 -42 2 -31 -10 19 -23 65 -43 100 -43 76 0 133 70 125 153
-2 23 -4 35 -5 25z"/>
<path d="M213 234 c-3 -8 -1 -20 5 -26 15 -15 43 8 35 28 -7 19 -32 18 -40 -2z"/>
<path d="M280 230 c0 -5 5 -10 10 -10 6 0 10 5 10 10 0 6 -4 10 -10 10 -5 0
-10 -4 -10 -10z"/>
<path d="M160 100 c0 -26 29 -40 82 -40 l43 1 -38 13 c-21 8 -46 21 -56 30
-23 21 -31 20 -31 -4z"/>
</g>
</svg>
