<?xml version="1.0" encoding="utf-8"?>
<!-- Generator: Adobe Illustrator 16.0.4, SVG Export Plug-In . SVG Version: 6.00 Build 0)  -->
<!DOCTYPE svg PUBLIC "-//W3C//DTD SVG 1.1//EN" "http://www.w3.org/Graphics/SVG/1.1/DTD/svg11.dtd">
<svg version="1.1" id="Layer_1" xmlns:sketch="http://www.bohemiancoding.com/sketch/ns"
	 xmlns="http://www.w3.org/2000/svg" xmlns:xlink="http://www.w3.org/1999/xlink" x="0px" y="0px" width="252px" height="64px"
	 viewBox="0 0 252 64" enable-background="new 0 0 252 64" xml:space="preserve">
<title>Untitled 2</title>
<desc>Created with Sketch.</desc>
<path sketch:type="MSShapeGroup" fill="#895022" d="M85.518,39.9c-1.428,0-2.725-0.159-3.891-0.477
	c-1.166-0.318-2.214-0.752-3.147-1.3c-0.932-0.548-1.741-1.205-2.425-1.972c-0.685-0.766-1.246-1.582-1.682-2.453l4.982-2.883
	c0.67,1.077,1.465,1.966,2.383,2.665c0.918,0.701,2.134,1.05,3.649,1.05c1.282,0,2.295-0.284,3.038-0.853
	c0.743-0.57,1.114-1.292,1.114-2.166c0-1.05-0.393-1.838-1.18-2.364c-0.788-0.524-1.88-1.092-3.279-1.706l-1.53-0.657
	c-1.107-0.466-2.113-0.977-3.016-1.531c-0.904-0.555-1.676-1.196-2.316-1.924c-0.642-0.729-1.137-1.561-1.486-2.494
	c-0.35-0.934-0.525-2.028-0.525-3.282c0-1.138,0.211-2.203,0.634-3.194c0.422-0.991,1.02-1.852,1.791-2.581
	c0.772-0.729,1.712-1.299,2.82-1.707c1.107-0.409,2.345-0.612,3.715-0.612c1.952,0,3.635,0.373,5.049,1.123
	c1.412,0.749,2.628,2.017,3.65,3.809l-4.764,3.06c-0.525-0.931-1.093-1.601-1.706-2.009c-0.612-0.407-1.355-0.612-2.229-0.612
	c-0.904,0-1.617,0.247-2.142,0.74c-0.523,0.495-0.787,1.12-0.787,1.875c0,0.931,0.299,1.636,0.897,2.115
	c0.596,0.48,1.551,1.01,2.862,1.591l1.53,0.654c1.312,0.553,2.47,1.126,3.476,1.722c1.005,0.597,1.85,1.265,2.535,2.006
	c0.683,0.741,1.208,1.585,1.574,2.529c0.364,0.945,0.545,2.057,0.545,3.335c0,1.366-0.255,2.579-0.764,3.639
	c-0.51,1.062-1.217,1.956-2.121,2.683c-0.902,0.728-1.974,1.273-3.212,1.636S86.975,39.9,85.518,39.9"/>
<path sketch:type="MSShapeGroup" fill="#895022" d="M106.324,15.179h-8.479V9.807h23.079v5.372h-8.479v24.329h-6.12L106.324,15.179"
	/>
<path sketch:type="MSShapeGroup" fill="#895022" d="M122.978,39.77c-1.019,0-1.894-0.342-2.622-1.026
	c-0.729-0.685-1.093-1.579-1.093-2.687c0-1.076,0.364-1.957,1.093-2.642c0.728-0.685,1.602-1.027,2.622-1.027
	c0.992,0,1.85,0.343,2.579,1.027c0.729,0.685,1.094,1.565,1.094,2.642c0,1.107-0.364,2.002-1.094,2.687
	C124.828,39.428,123.97,39.77,122.978,39.77"/>
<path sketch:type="MSShapeGroup" fill="#895022" d="M152.046,9.546h0.525l13.594,29.962h-6.425l-1.4-3.363h-12.064l-1.397,3.363
	h-5.901L152.046,9.546L152.046,9.546z M156.155,31.035l-2.142-5.154c-0.233-0.525-0.451-1.092-0.654-1.705
	c-0.204-0.61-0.395-1.194-0.568-1.746c-0.205-0.612-0.395-1.237-0.569-1.878c-0.204,0.641-0.393,1.266-0.567,1.878l-0.547,1.746
	c-0.19,0.612-0.401,1.18-0.633,1.705l-2.143,5.154H156.155L156.155,31.035z"/>
<path sketch:type="MSShapeGroup" fill="#895022" d="M179.015,25.705c-0.379-0.349-0.772-0.756-1.181-1.222
	c-0.408-0.465-0.786-0.901-1.136-1.31c-0.409-0.495-0.817-1.005-1.224-1.529c0.059,0.64,0.131,1.282,0.22,1.922
	c0.058,0.553,0.108,1.142,0.152,1.769c0.044,0.626,0.065,1.201,0.065,1.725v12.448h-5.727V9.546h0.613l14.992,14.064
	c0.35,0.349,0.729,0.757,1.137,1.222s0.787,0.902,1.137,1.31c0.407,0.496,0.815,1.005,1.224,1.529
	c-0.088-0.64-0.16-1.28-0.218-1.922c-0.061-0.551-0.104-1.141-0.133-1.769c-0.028-0.625-0.043-1.201-0.043-1.725V9.807h5.726V39.77
	h-0.612L179.015,25.705"/>
<path sketch:type="MSShapeGroup" fill="#895022" d="M209.656,25.705c-0.379-0.349-0.773-0.756-1.182-1.222
	c-0.408-0.465-0.787-0.901-1.136-1.31c-0.409-0.495-0.817-1.005-1.224-1.529c0.059,0.64,0.131,1.282,0.219,1.922
	c0.059,0.553,0.11,1.142,0.153,1.769c0.044,0.626,0.065,1.201,0.065,1.725v12.448h-5.726V9.546h0.612l14.991,14.064
	c0.352,0.349,0.729,0.757,1.139,1.222c0.407,0.465,0.786,0.902,1.136,1.31c0.408,0.496,0.816,1.005,1.224,1.529
	c-0.088-0.64-0.161-1.28-0.219-1.922c-0.06-0.551-0.104-1.141-0.132-1.769c-0.028-0.625-0.043-1.201-0.043-1.725V9.807h5.726V39.77
	h-0.612L209.656,25.705"/>
<path sketch:type="MSShapeGroup" fill="#895022" d="M231.467,9.807h19.67v5.372h-13.551v9.436h11.934v5.242h-11.934v4.281h14.163
	v5.372h-20.282v-29.7"/>
<path sketch:type="MSShapeGroup" fill="#895022" d="M92.549,54.432h-1.975l-1.365-2.096c-0.163,0.025-0.326,0.037-0.487,0.037
	h-0.586v2.059h-1.707v-8.283h2.293c1.161,0,2.069,0.268,2.725,0.804c0.653,0.535,0.98,1.311,0.98,2.325
	c0,0.651-0.138,1.183-0.415,1.597c-0.274,0.415-0.669,0.739-1.183,0.976L92.549,54.432L92.549,54.432z M88.672,50.875
	c0.699,0,1.207-0.121,1.524-0.364c0.316-0.243,0.476-0.655,0.476-1.237s-0.161-0.998-0.483-1.25
	c-0.32-0.252-0.826-0.375-1.518-0.375h-0.536v3.228L88.672,50.875L88.672,50.875z"/>
<path sketch:type="MSShapeGroup" fill="#895022" d="M98.169,54.542c-0.601,0-1.161-0.108-1.682-0.323s-0.975-0.512-1.359-0.89
	c-0.386-0.378-0.691-0.827-0.914-1.347c-0.224-0.519-0.336-1.084-0.336-1.692s0.112-1.173,0.336-1.692
	c0.223-0.52,0.527-0.97,0.914-1.348c0.385-0.378,0.839-0.674,1.359-0.889s1.081-0.322,1.682-0.322c0.594,0,1.152,0.107,1.677,0.322
	c0.523,0.214,0.979,0.511,1.364,0.889c0.386,0.379,0.691,0.828,0.915,1.348c0.223,0.519,0.335,1.084,0.335,1.692
	s-0.112,1.173-0.335,1.692c-0.224,0.52-0.528,0.97-0.915,1.347c-0.385,0.378-0.841,0.674-1.364,0.89
	C99.321,54.434,98.762,54.542,98.169,54.542z M98.169,53.02c0.374,0,0.717-0.069,1.03-0.207c0.312-0.14,0.581-0.33,0.805-0.573
	c0.223-0.244,0.396-0.531,0.518-0.864c0.123-0.334,0.183-0.695,0.183-1.085s-0.06-0.752-0.183-1.085
	c-0.122-0.332-0.295-0.621-0.518-0.864c-0.224-0.243-0.492-0.434-0.805-0.573c-0.313-0.139-0.657-0.207-1.03-0.207
	c-0.382,0-0.727,0.068-1.035,0.207c-0.31,0.14-0.575,0.33-0.8,0.573c-0.223,0.243-0.396,0.532-0.518,0.864
	c-0.122,0.333-0.184,0.695-0.184,1.085c0,0.389,0.062,0.751,0.184,1.085c0.122,0.333,0.295,0.62,0.518,0.864
	c0.224,0.243,0.49,0.434,0.8,0.573C97.443,52.95,97.787,53.02,98.169,53.02z"/>
<path sketch:type="MSShapeGroup" fill="#895022" d="M104.155,46.062h0.135l4.083,4.483l4.023-4.483h0.147v8.369h-1.646v-3.105
	l0.005-0.463l0.018-0.477l0.036-0.512l-0.303,0.427l-0.286,0.378l-0.298,0.366l-1.643,1.839h-0.158l-1.642-1.839l-0.305-0.366
	l-0.291-0.378l-0.291-0.427l0.022,0.512l0.025,0.477l0.013,0.463v3.105h-1.646V46.062"/>
<path sketch:type="MSShapeGroup" fill="#895022" d="M117.552,46.075h0.146l3.792,8.356h-1.792l-0.39-0.938h-3.365l-0.392,0.938
	h-1.646L117.552,46.075z M118.697,52.068l-0.597-1.437c-0.066-0.146-0.126-0.305-0.183-0.476l-0.159-0.487l-0.159-0.522
	l-0.157,0.522l-0.154,0.487c-0.052,0.171-0.112,0.33-0.176,0.476l-0.598,1.437H118.697L118.697,52.068z"/>
<path sketch:type="MSShapeGroup" fill="#895022" d="M125.318,50.582c-0.107-0.098-0.217-0.211-0.33-0.341l-0.317-0.366l-0.342-0.426
	l0.062,0.537l0.043,0.492l0.018,0.481v3.472h-1.598v-8.356h0.171l4.183,3.923l0.317,0.34l0.315,0.366l0.343,0.427l-0.062-0.537
	l-0.036-0.492l-0.012-0.481v-3.472h1.596v8.356h-0.171L125.318,50.582"/>
<path sketch:type="MSShapeGroup" fill="#895022" d="M138.57,54.542c-0.594,0-1.152-0.108-1.672-0.323s-0.971-0.512-1.354-0.89
	c-0.382-0.378-0.684-0.827-0.908-1.347c-0.224-0.519-0.335-1.084-0.335-1.692s0.111-1.173,0.335-1.692
	c0.225-0.52,0.526-0.97,0.908-1.348s0.834-0.672,1.354-0.883s1.078-0.316,1.672-0.316c0.755,0,1.404,0.135,1.943,0.409
	c0.54,0.272,0.997,0.7,1.371,1.284l-1.304,0.926c-0.194-0.316-0.459-0.576-0.792-0.779c-0.334-0.203-0.74-0.305-1.218-0.305
	c-0.375,0-0.716,0.069-1.026,0.207c-0.309,0.139-0.572,0.326-0.791,0.566c-0.22,0.238-0.391,0.523-0.512,0.853
	c-0.122,0.327-0.184,0.688-0.184,1.077s0.062,0.751,0.184,1.085c0.122,0.333,0.292,0.62,0.512,0.864
	c0.219,0.244,0.483,0.434,0.791,0.572c0.311,0.139,0.651,0.207,1.026,0.207c0.534,0,0.966-0.112,1.291-0.34s0.604-0.521,0.842-0.878
	l1.328,0.913c-0.365,0.561-0.833,1.006-1.402,1.334C140.061,54.377,139.375,54.541,138.57,54.542"/>
<path sketch:type="MSShapeGroup" fill="#895022" d="M146.213,46.075h0.147l3.79,8.356h-1.791l-0.391-0.938h-3.365l-0.39,0.938
	h-1.646L146.213,46.075L146.213,46.075z M147.36,52.068l-0.599-1.437c-0.064-0.146-0.126-0.305-0.183-0.476l-0.158-0.487
	l-0.159-0.522l-0.158,0.522l-0.152,0.487c-0.053,0.171-0.112,0.33-0.178,0.476l-0.597,1.437H147.36L147.36,52.068z"/>
<path sketch:type="MSShapeGroup" fill="#895022" d="M152.248,47.646h-2.366v-1.498h6.438v1.498h-2.366v6.785h-1.706L152.248,47.646"
	/>
<path sketch:type="MSShapeGroup" fill="#895022" d="M157.819,46.148h1.708v4.238h3.547v-4.238h1.706v8.283h-1.706v-2.522h-3.547
	v2.522h-1.708V46.148"/>
<path sketch:type="MSShapeGroup" fill="#895022" d="M170.765,54.542c-0.601,0-1.161-0.108-1.682-0.323s-0.974-0.512-1.358-0.89
	c-0.387-0.378-0.691-0.827-0.914-1.347c-0.225-0.519-0.336-1.084-0.336-1.692s0.111-1.173,0.336-1.692
	c0.223-0.52,0.526-0.97,0.914-1.348c0.385-0.378,0.838-0.674,1.358-0.889s1.081-0.322,1.682-0.322c0.595,0,1.152,0.107,1.677,0.322
	c0.524,0.214,0.979,0.511,1.365,0.889c0.385,0.379,0.69,0.828,0.915,1.348c0.224,0.519,0.335,1.084,0.335,1.692
	s-0.111,1.173-0.335,1.692c-0.225,0.52-0.528,0.97-0.915,1.347c-0.386,0.378-0.841,0.674-1.365,0.89
	C171.917,54.434,171.357,54.542,170.765,54.542z M170.765,53.02c0.375,0,0.718-0.069,1.031-0.207c0.313-0.14,0.58-0.33,0.806-0.573
	c0.223-0.244,0.395-0.531,0.518-0.864c0.122-0.334,0.183-0.695,0.183-1.085s-0.061-0.752-0.183-1.085
	c-0.123-0.332-0.295-0.621-0.518-0.864c-0.226-0.243-0.492-0.434-0.806-0.573c-0.313-0.139-0.657-0.207-1.031-0.207
	c-0.382,0-0.727,0.068-1.034,0.207c-0.311,0.14-0.575,0.33-0.799,0.573s-0.396,0.532-0.518,0.864
	c-0.123,0.333-0.184,0.695-0.184,1.085c0,0.389,0.061,0.751,0.184,1.085c0.121,0.333,0.294,0.62,0.518,0.864
	c0.224,0.243,0.489,0.434,0.799,0.573C170.039,52.95,170.383,53.02,170.765,53.02z"/>
<path sketch:type="MSShapeGroup" fill="#895022" d="M176.751,46.148h1.708v6.785h3.753v1.498h-5.461V46.148"/>
<path sketch:type="MSShapeGroup" fill="#895022" d="M183.87,46.148h1.708v8.283h-1.708V46.148z"/>
<path sketch:type="MSShapeGroup" fill="#895022" d="M191.564,54.542c-0.595,0-1.152-0.108-1.672-0.323
	c-0.521-0.215-0.971-0.512-1.354-0.89c-0.382-0.378-0.684-0.827-0.907-1.347c-0.225-0.519-0.336-1.084-0.336-1.692
	s0.111-1.173,0.336-1.692c0.224-0.52,0.525-0.97,0.907-1.348s0.833-0.672,1.354-0.883c0.52-0.211,1.077-0.316,1.672-0.316
	c0.755,0,1.403,0.135,1.943,0.409c0.54,0.272,0.997,0.7,1.372,1.284l-1.306,0.926c-0.194-0.316-0.459-0.576-0.792-0.779
	c-0.334-0.203-0.74-0.305-1.218-0.305c-0.375,0-0.716,0.069-1.026,0.207c-0.31,0.139-0.572,0.326-0.791,0.566
	c-0.219,0.238-0.392,0.523-0.513,0.853c-0.121,0.327-0.184,0.688-0.184,1.077s0.062,0.751,0.184,1.085
	c0.123,0.333,0.295,0.62,0.513,0.864c0.219,0.244,0.483,0.434,0.791,0.572c0.311,0.139,0.651,0.207,1.026,0.207
	c0.534,0,0.966-0.112,1.291-0.34s0.604-0.521,0.842-0.878l1.328,0.913c-0.365,0.561-0.834,1.006-1.402,1.334
	C193.054,54.377,192.368,54.541,191.564,54.542"/>
<path sketch:type="MSShapeGroup" fill="#895022" d="M199.475,46.148h2.293c0.575,0,1.094,0.074,1.553,0.219
	c0.46,0.146,0.848,0.357,1.164,0.634c0.317,0.276,0.562,0.614,0.731,1.011c0.171,0.399,0.256,0.846,0.256,1.342
	c0,0.502-0.085,0.95-0.256,1.346c-0.17,0.394-0.414,0.726-0.731,0.998c-0.316,0.271-0.704,0.48-1.164,0.627
	c-0.459,0.146-0.978,0.219-1.553,0.219h-0.586v1.889h-1.707V46.148z M201.718,51.045c0.699,0,1.207-0.14,1.523-0.42
	c0.317-0.281,0.476-0.705,0.476-1.273c0-0.576-0.16-1.006-0.48-1.285c-0.321-0.28-0.827-0.42-1.519-0.42h-0.536v3.398H201.718z"/>
<path sketch:type="MSShapeGroup" fill="#895022" d="M209.166,46.075h0.146l3.791,8.356h-1.791l-0.391-0.938h-3.365l-0.39,0.938
	h-1.646L209.166,46.075L209.166,46.075z M210.312,52.068l-0.598-1.437c-0.064-0.146-0.126-0.305-0.183-0.476l-0.158-0.487
	l-0.159-0.522l-0.158,0.522l-0.152,0.487c-0.053,0.171-0.112,0.33-0.178,0.476l-0.597,1.437H210.312L210.312,52.068z"/>
<path sketch:type="MSShapeGroup" fill="#895022" d="M220.589,54.432h-1.975l-1.365-2.096c-0.163,0.025-0.326,0.037-0.488,0.037
	h-0.585v2.059h-1.707v-8.283h2.292c1.163,0,2.07,0.268,2.724,0.804c0.654,0.535,0.982,1.311,0.982,2.325
	c0,0.651-0.139,1.183-0.415,1.597c-0.274,0.415-0.669,0.739-1.183,0.976L220.589,54.432L220.589,54.432z M216.712,50.875
	c0.699,0,1.207-0.121,1.523-0.364c0.317-0.243,0.477-0.655,0.477-1.237s-0.161-0.998-0.483-1.25
	c-0.319-0.252-0.825-0.375-1.518-0.375h-0.536v3.228L216.712,50.875L216.712,50.875z"/>
<path sketch:type="MSShapeGroup" fill="#895022" d="M222.235,46.148h1.706v8.283h-1.706V46.148z"/>
<path sketch:type="MSShapeGroup" fill="#895022" d="M228.331,54.542c-0.399,0-0.76-0.045-1.086-0.133
	c-0.325-0.089-0.617-0.21-0.877-0.363c-0.261-0.153-0.486-0.336-0.677-0.55c-0.191-0.212-0.349-0.441-0.471-0.684l1.391-0.805
	c0.188,0.301,0.408,0.549,0.664,0.743c0.257,0.195,0.596,0.292,1.018,0.292c0.357,0,0.641-0.08,0.848-0.238s0.312-0.361,0.312-0.604
	c0-0.293-0.109-0.514-0.329-0.659c-0.22-0.147-0.523-0.306-0.914-0.476l-0.427-0.184c-0.31-0.13-0.589-0.273-0.841-0.427
	c-0.252-0.155-0.469-0.334-0.646-0.538c-0.179-0.203-0.318-0.436-0.415-0.695s-0.145-0.564-0.145-0.914
	c0-0.317,0.059-0.613,0.176-0.891s0.284-0.518,0.5-0.721c0.215-0.204,0.477-0.362,0.786-0.477c0.31-0.113,0.654-0.171,1.038-0.171
	c0.543,0,1.013,0.105,1.407,0.314c0.394,0.209,0.732,0.562,1.018,1.061l-1.328,0.854c-0.146-0.26-0.307-0.447-0.477-0.562
	c-0.17-0.112-0.379-0.171-0.62-0.171c-0.253,0-0.452,0.069-0.6,0.207c-0.145,0.139-0.219,0.312-0.219,0.523
	c0,0.26,0.083,0.457,0.25,0.59c0.167,0.134,0.433,0.281,0.798,0.445l0.428,0.182c0.365,0.154,0.688,0.314,0.969,0.48
	c0.281,0.164,0.516,0.352,0.707,0.56c0.19,0.206,0.338,0.442,0.438,0.704c0.101,0.265,0.153,0.574,0.153,0.931
	c0,0.381-0.072,0.719-0.212,1.015c-0.144,0.295-0.339,0.545-0.591,0.748s-0.552,0.354-0.897,0.456s-0.722,0.153-1.127,0.153"/>
<path sketch:type="MSShapeGroup" fill="#895022" d="M232.73,46.148h1.707v4.238h3.547v-4.238h1.707v8.283h-1.707v-2.522h-3.547
	v2.522h-1.707V46.148"/>
<path sketch:type="MSShapeGroup" fill="#005F72" d="M32.458,0.977c-17.096,0-30.954,13.847-30.954,30.93
	c0,17.082,13.859,30.928,30.954,30.928c17.096,0,30.953-13.848,30.953-30.928C63.411,14.824,49.553,0.977,32.458,0.977"/>
<path sketch:type="MSShapeGroup" fill="#F7ECDF" d="M32.458,5.191c-14.743,0-26.737,11.985-26.737,26.715S17.715,58.62,32.458,58.62
	s26.736-11.983,26.736-26.714S47.202,5.191,32.458,5.191z M51.473,46.741c-6.938,6.859-18.163,6.837-25.071-0.065
	c-1.407-1.404-2.467-3.077-3.161-4.896c2.092,2.063,4.961,3.341,8.124,3.341c4.931,0,9.14-3.103,10.804-7.45
	c7-0.458,12.651-5.938,13.361-12.862c0.694,2.246,1.068,4.628,1.068,7.098C56.598,37.498,54.679,42.647,51.473,46.741L51.473,46.741
	z M27.032,25.694c0.182,1.083,0.481,2.126,0.891,3.114c-1.47,1.068-2.431,2.793-2.431,4.743c0,3.235,2.635,5.868,5.872,5.868
	c2.03,0,3.821-1.034,4.876-2.604c0.998,0.368,2.049,0.628,3.137,0.767c-1.48,2.929-4.513,4.945-8.013,4.945
	c-4.953,0-8.982-4.026-8.982-8.975C22.382,30.234,24.199,27.251,27.032,25.694L27.032,25.694z M53.012,23.332
	c0,5.945-4.434,10.862-10.169,11.654c0.059-0.469,0.099-0.946,0.099-1.433c0-0.613-0.057-1.215-0.15-1.808
	c3.978-0.74,7.001-4.228,7.001-8.414c0-4.723-3.846-8.564-8.572-8.564c-3.149,0-5.898,1.71-7.389,4.243h-3.569
	c1.729-4.363,5.985-7.459,10.958-7.459C47.722,11.551,53.012,16.836,53.012,23.332z M35.244,23.332c0-0.222,0.014-0.44,0.037-0.656
	c0.328-2.984,2.865-5.316,5.939-5.316c3.295,0,5.977,2.679,5.977,5.971c0,2.998-2.224,5.48-5.11,5.902
	c-0.283,0.041-0.571,0.07-0.867,0.07c-0.779,0-1.523-0.155-2.207-0.427c-1.456-0.582-2.631-1.716-3.261-3.145
	c-0.325-0.735-0.508-1.546-0.508-2.4V23.332z M34.642,33.553c0,0.342-0.066,0.663-0.164,0.972c-0.135,0.426-0.349,0.812-0.632,1.143
	c-0.603,0.704-1.485,1.16-2.481,1.16c-1.807,0-3.277-1.469-3.277-3.273c0-0.954,0.417-1.805,1.069-2.403
	c0.32-0.293,0.696-0.519,1.112-0.669c0.344-0.123,0.71-0.202,1.097-0.202l0.384,0.038c1.463,0.174,2.626,1.303,2.844,2.751
	C34.616,33.227,34.642,33.386,34.642,33.553z M37.171,34.383c0.039-0.272,0.065-0.548,0.065-0.83c0-1.207-0.367-2.328-0.994-3.262
	c1.135,0.814,2.475,1.356,3.929,1.535c0.111,0.562,0.175,1.139,0.175,1.728c0,0.515-0.053,1.017-0.137,1.508
	C39.148,34.971,38.133,34.734,37.171,34.383L37.171,34.383z M32.824,21.604c-0.114,0.559-0.174,1.136-0.174,1.729
	c0,1.976,0.679,3.79,1.809,5.242c-0.9-0.56-1.957-0.889-3.092-0.889c-0.36,0-0.711,0.037-1.054,0.1
	c-0.563-1.376-0.881-2.877-0.881-4.454c0-0.589,0.058-1.163,0.142-1.728L32.824,21.604L32.824,21.604z M26.847,22.901
	c-1.804,0.763-3.341,1.956-4.519,3.427v-4.725h4.614C26.892,22.03,26.859,22.463,26.847,22.901z M40.036,9.01
	c-5.903,0.484-10.81,4.54-12.536,10h-5.172v-8.989c3.083-1.43,6.514-2.235,10.13-2.235C35.106,7.786,37.652,8.221,40.036,9.01
	L40.036,9.01z M19.733,11.421v7.589h-7.661C14.023,15.943,16.645,13.344,19.733,11.421z M8.317,31.908
	c0-3.685,0.834-7.177,2.318-10.304h9.098V37.48h-0.003l0.003,0.03v14.884C12.886,48.133,8.316,40.544,8.317,31.908L8.317,31.908z
	 M32.458,56.029c-3.617,0-7.047-0.804-10.13-2.234v-8.088c0.642,1.002,1.381,1.948,2.238,2.805c3.972,3.97,9.188,5.951,14.404,5.951
	c0.804,0,1.605-0.051,2.406-0.146C38.614,55.419,35.607,56.03,32.458,56.029L32.458,56.029z"/>
</svg>
